<?xml version="1.0" encoding="UTF-8"?>
<svg width="706px" height="283px" viewBox="0 0 706 283" version="1.1" xmlns="http://www.w3.org/2000/svg" xmlns:xlink="http://www.w3.org/1999/xlink">
    <!-- Generator: Sketch 60.1 (88133) - https://sketch.com -->
    <title>Joro - Gray</title>
    <desc>Created with Sketch.</desc>
    <defs>
        <polygon id="path-1" points="0.06 0.625 100.006 0.625 100.006 277.94 0.06 277.94"></polygon>
    </defs>
    <g id="Joro---Gray" stroke="none" stroke-width="1" fill="none" fill-rule="evenodd">
        <g id="Joro_Logotype_Gray">
            <g id="Group-3" transform="translate(0.000000, 5.000000)">
                <mask id="mask-2" fill="white">
                    <use xlink:href="#path-1"></use>
                </mask>
                <g id="Clip-2"></g>
                <path d="M50.946,193.09 C50.946,211.203 48.681,219.128 43.775,224.413 C38.491,230.073 30.568,232.715 20.378,232.715 C17.737,232.715 10.943,231.96 7.547,230.828 L0,275.358 C5.282,276.49 14.717,278 24.529,278 C56.228,278 75.474,266.679 86.796,250.827 C96.231,237.244 100.006,220.639 100.006,193.09 L100.006,0.625 L50.946,0.625 L50.946,193.09" id="Fill-1" fill="#353B46" mask="url(#mask-2)"></path>
            </g>
            <path d="M424.899,24.117 L424.899,5.625 L377.725,5.625 L377.725,188.654 L426.785,188.654 L426.785,73.553 C432.825,62.608 449.807,47.136 471.315,47.136 C478.486,47.136 485.657,47.891 489.053,49.024 L494.714,3.36 C489.432,2.605 485.28,1.851 478.11,1.851 C455.844,1.851 435.842,10.531 424.899,24.117" id="Fill-4" fill="#353B46"></path>
            <path d="M238.868,146.413 C211.655,146.413 189.595,124.353 189.595,97.14 C189.595,69.927 211.655,47.866 238.868,47.866 C266.081,47.866 288.142,69.927 288.142,97.14 C288.142,124.353 266.081,146.413 238.868,146.413 Z M238.868,0.182 C185.32,0.182 141.911,43.591 141.911,97.14 C141.911,150.688 185.32,194.098 238.868,194.098 C292.417,194.098 335.826,150.688 335.826,97.14 C335.826,43.591 292.417,0.182 238.868,0.182 L238.868,0.182 Z" id="Fill-5" fill="#353B46"></path>
            <path d="M609.042,146.413 C581.829,146.413 559.768,124.353 559.768,97.14 C559.768,69.927 581.829,47.866 609.042,47.866 C636.255,47.866 658.315,69.927 658.315,97.14 C658.315,124.353 636.255,146.413 609.042,146.413 Z M609.042,0.182 C555.494,0.182 512.084,43.591 512.084,97.14 C512.084,150.688 555.494,194.098 609.042,194.098 C662.591,194.098 706,150.688 706,97.14 C706,43.591 662.591,0.182 609.042,0.182 L609.042,0.182 Z" id="Fill-6" fill="#353B46"></path>
        </g>
    </g>
</svg>